<?xml version="1.0" encoding="utf-8" ?>
<svg baseProfile="tiny" height="100%" version="1.2" width="100%" xmlns="http://www.w3.org/2000/svg" xmlns:ev="http://www.w3.org/2001/xml-events" xmlns:xlink="http://www.w3.org/1999/xlink"><defs /><g fill="white" id="shapes"><rect fill="white" height="1cm" stroke="black" stroke-width="1" width="1cm" x="0cm" y="0cm" /><rect fill="white" height="1cm" stroke="black" stroke-width="1" width="1cm" x="1cm" y="0cm" /><rect fill="white" height="1cm" stroke="black" stroke-width="1" width="1cm" x="2cm" y="0cm" /><rect fill="white" height="1cm" stroke="black" stroke-width="1" width="1cm" x="3cm" y="0cm" /><rect fill="white" height="1cm" stroke="black" stroke-width="1" width="1cm" x="4cm" y="0cm" /><rect fill="white" height="1cm" stroke="black" stroke-width="1" width="1cm" x="5cm" y="0cm" /><rect fill="white" height="1cm" stroke="black" stroke-width="1" width="1cm" x="6cm" y="0cm" /><rect fill="white" height="1cm" stroke="black" stroke-width="1" width="1cm" x="7cm" y="0cm" /><rect fill="white" height="1cm" stroke="black" stroke-width="1" width="1cm" x="0cm" y="1cm" /><rect fill="black" height="1cm" stroke="black" stroke-width="1" width="1cm" x="1cm" y="1cm" /><rect fill="black" height="1cm" stroke="black" stroke-width="1" width="1cm" x="2cm" y="1cm" /><rect fill="black" height="1cm" stroke="black" stroke-width="1" width="1cm" x="3cm" y="1cm" /><rect fill="black" height="1cm" stroke="black" stroke-width="1" width="1cm" x="4cm" y="1cm" /><rect fill="white" height="1cm" stroke="black" stroke-width="1" width="1cm" x="5cm" y="1cm" /><rect fill="white" height="1cm" stroke="black" stroke-width="1" width="1cm" x="6cm" y="1cm" /><rect fill="white" height="1cm" stroke="black" stroke-width="1" width="1cm" x="7cm" y="1cm" /><rect fill="white" height="1cm" stroke="black" stroke-width="1" width="1cm" x="0cm" y="2cm" /><rect fill="black" height="1cm" stroke="black" stroke-width="1" width="1cm" x="1cm" y="2cm" /><rect fill="black" height="1cm" stroke="black" stroke-width="1" width="1cm" x="2cm" y="2cm" /><rect fill="black" height="1cm" stroke="black" stroke-width="1" width="1cm" x="3cm" y="2cm" /><rect fill="black" height="1cm" stroke="black" stroke-width="1" width="1cm" x="4cm" y="2cm" /><rect fill="black" height="1cm" stroke="black" stroke-width="1" width="1cm" x="5cm" y="2cm" /><rect fill="black" height="1cm" stroke="black" stroke-width="1" width="1cm" x="6cm" y="2cm" /><rect fill="white" height="1cm" stroke="black" stroke-width="1" width="1cm" x="7cm" y="2cm" /><rect fill="white" height="1cm" stroke="black" stroke-width="1" width="1cm" x="0cm" y="3cm" /><rect fill="black" height="1cm" stroke="black" stroke-width="1" width="1cm" x="1cm" y="3cm" /><rect fill="black" height="1cm" stroke="black" stroke-width="1" width="1cm" x="2cm" y="3cm" /><rect fill="white" height="1cm" stroke="black" stroke-width="1" width="1cm" x="3cm" y="3cm" /><rect fill="white" height="1cm" stroke="black" stroke-width="1" width="1cm" x="4cm" y="3cm" /><rect fill="black" height="1cm" stroke="black" stroke-width="1" width="1cm" x="5cm" y="3cm" /><rect fill="black" height="1cm" stroke="black" stroke-width="1" width="1cm" x="6cm" y="3cm" /><rect fill="white" height="1cm" stroke="black" stroke-width="1" width="1cm" x="7cm" y="3cm" /><rect fill="white" height="1cm" stroke="black" stroke-width="1" width="1cm" x="0cm" y="4cm" /><rect fill="black" height="1cm" stroke="black" stroke-width="1" width="1cm" x="1cm" y="4cm" /><rect fill="black" height="1cm" stroke="black" stroke-width="1" width="1cm" x="2cm" y="4cm" /><rect fill="white" height="1cm" stroke="black" stroke-width="1" width="1cm" x="3cm" y="4cm" /><rect fill="white" height="1cm" stroke="black" stroke-width="1" width="1cm" x="4cm" y="4cm" /><rect fill="black" height="1cm" stroke="black" stroke-width="1" width="1cm" x="5cm" y="4cm" /><rect fill="black" height="1cm" stroke="black" stroke-width="1" width="1cm" x="6cm" y="4cm" /><rect fill="white" height="1cm" stroke="black" stroke-width="1" width="1cm" x="7cm" y="4cm" /><rect fill="white" height="1cm" stroke="black" stroke-width="1" width="1cm" x="0cm" y="5cm" /><rect fill="black" height="1cm" stroke="black" stroke-width="1" width="1cm" x="1cm" y="5cm" /><rect fill="black" height="1cm" stroke="black" stroke-width="1" width="1cm" x="2cm" y="5cm" /><rect fill="black" height="1cm" stroke="black" stroke-width="1" width="1cm" x="3cm" y="5cm" /><rect fill="black" height="1cm" stroke="black" stroke-width="1" width="1cm" x="4cm" y="5cm" /><rect fill="black" height="1cm" stroke="black" stroke-width="1" width="1cm" x="5cm" y="5cm" /><rect fill="black" height="1cm" stroke="black" stroke-width="1" width="1cm" x="6cm" y="5cm" /><rect fill="white" height="1cm" stroke="black" stroke-width="1" width="1cm" x="7cm" y="5cm" /><rect fill="white" height="1cm" stroke="black" stroke-width="1" width="1cm" x="0cm" y="6cm" /><rect fill="black" height="1cm" stroke="black" stroke-width="1" width="1cm" x="1cm" y="6cm" /><rect fill="black" height="1cm" stroke="black" stroke-width="1" width="1cm" x="2cm" y="6cm" /><rect fill="black" height="1cm" stroke="black" stroke-width="1" width="1cm" x="3cm" y="6cm" /><rect fill="black" height="1cm" stroke="black" stroke-width="1" width="1cm" x="4cm" y="6cm" /><rect fill="white" height="1cm" stroke="black" stroke-width="1" width="1cm" x="5cm" y="6cm" /><rect fill="white" height="1cm" stroke="black" stroke-width="1" width="1cm" x="6cm" y="6cm" /><rect fill="white" height="1cm" stroke="black" stroke-width="1" width="1cm" x="7cm" y="6cm" /><rect fill="white" height="1cm" stroke="black" stroke-width="1" width="1cm" x="0cm" y="7cm" /><rect fill="black" height="1cm" stroke="black" stroke-width="1" width="1cm" x="1cm" y="7cm" /><rect fill="black" height="1cm" stroke="black" stroke-width="1" width="1cm" x="2cm" y="7cm" /><rect fill="white" height="1cm" stroke="black" stroke-width="1" width="1cm" x="3cm" y="7cm" /><rect fill="white" height="1cm" stroke="black" stroke-width="1" width="1cm" x="4cm" y="7cm" /><rect fill="white" height="1cm" stroke="black" stroke-width="1" width="1cm" x="5cm" y="7cm" /><rect fill="white" height="1cm" stroke="black" stroke-width="1" width="1cm" x="6cm" y="7cm" /><rect fill="white" height="1cm" stroke="black" stroke-width="1" width="1cm" x="7cm" y="7cm" /><rect fill="white" height="1cm" stroke="black" stroke-width="1" width="1cm" x="0cm" y="8cm" /><rect fill="black" height="1cm" stroke="black" stroke-width="1" width="1cm" x="1cm" y="8cm" /><rect fill="black" height="1cm" stroke="black" stroke-width="1" width="1cm" x="2cm" y="8cm" /><rect fill="white" height="1cm" stroke="black" stroke-width="1" width="1cm" x="3cm" y="8cm" /><rect fill="white" height="1cm" stroke="black" stroke-width="1" width="1cm" x="4cm" y="8cm" /><rect fill="white" height="1cm" stroke="black" stroke-width="1" width="1cm" x="5cm" y="8cm" /><rect fill="white" height="1cm" stroke="black" stroke-width="1" width="1cm" x="6cm" y="8cm" /><rect fill="white" height="1cm" stroke="black" stroke-width="1" width="1cm" x="7cm" y="8cm" /><rect fill="white" height="1cm" stroke="black" stroke-width="1" width="1cm" x="0cm" y="9cm" /><rect fill="black" height="1cm" stroke="black" stroke-width="1" width="1cm" x="1cm" y="9cm" /><rect fill="black" height="1cm" stroke="black" stroke-width="1" width="1cm" x="2cm" y="9cm" /><rect fill="white" height="1cm" stroke="black" stroke-width="1" width="1cm" x="3cm" y="9cm" /><rect fill="white" height="1cm" stroke="black" stroke-width="1" width="1cm" x="4cm" y="9cm" /><rect fill="white" height="1cm" stroke="black" stroke-width="1" width="1cm" x="5cm" y="9cm" /><rect fill="white" height="1cm" stroke="black" stroke-width="1" width="1cm" x="6cm" y="9cm" /><rect fill="white" height="1cm" stroke="black" stroke-width="1" width="1cm" x="7cm" y="9cm" /><rect fill="white" height="1cm" stroke="black" stroke-width="1" width="1cm" x="0cm" y="10cm" /><rect fill="white" height="1cm" stroke="black" stroke-width="1" width="1cm" x="1cm" y="10cm" /><rect fill="white" height="1cm" stroke="black" stroke-width="1" width="1cm" x="2cm" y="10cm" /><rect fill="white" height="1cm" stroke="black" stroke-width="1" width="1cm" x="3cm" y="10cm" /><rect fill="white" height="1cm" stroke="black" stroke-width="1" width="1cm" x="4cm" y="10cm" /><rect fill="white" height="1cm" stroke="black" stroke-width="1" width="1cm" x="5cm" y="10cm" /><rect fill="white" height="1cm" stroke="black" stroke-width="1" width="1cm" x="6cm" y="10cm" /><rect fill="white" height="1cm" stroke="black" stroke-width="1" width="1cm" x="7cm" y="10cm" /></g></svg>